<svg height="261" viewBox="0 0 313 261" width="313" xmlns="http://www.w3.org/2000/svg"><g fill="none"><g transform="translate(0 85.124555)"><path d="m291.741834 78.0542357-31.438986 14.8777781 27.824868-20.8035534c-4.522313-7.0579386-9.602668-13.7424123-15.192345-19.9893183l-136.347025 33.8857625 123.159797-46.9757327c-5.627976-4.9650481-11.604798-9.520162-17.884483-13.6302945l-207.7607684 33.4609094c-22.0589318 27.5813605-34.08391553 61.8421722-34.10089772 97.1580872h312.73622612c-.012668-27.389191-7.255413-54.289804-20.996386-77.9836383z" fill="#f2f2f2"/><path d="m224.859953 15.7593136c-21.330768-10.40256394-44.757186-15.79291442-68.489846-15.7593136-48.301926 0-91.486369 21.8995201-120.1695889 56.3082261 49.1172918-10.7607957 134.6344169-29.3883459 188.6594349-40.5489125z" fill="#f2f2f2"/><g fill="#3f3d56"><path d="m248.095766 152.545285c-4.316205-.731151-8.467118-1.35907-12.452741-1.883757l1.575608-3.054531c-.531282-.18451-2.865529 1.564731-2.865529 1.564731l2.067734-8.866572c-2.672108.322208-4.030691 9.375519-4.030691 9.375519l-2.985426-3.060867 1.445325 3.441216c-10.484674-1.267346-21.033527-1.93116-31.594382-1.988158l1.348566-2.614359c-.5313-.184508-2.865548 1.56473-2.865548 1.56473l2.067734-8.866571c-2.672108.322207-4.030691 9.375518-4.030691 9.375518l-2.985425-3.060863 1.530844 3.644809c-6.071212.100248-12.133278.511972-18.162281 1.233547 1.364-4.072702 5.99766-7.946165 5.99766-7.946165-3.538687 1.052336-5.394922 2.815756-6.364856 4.45977-.086676-8.403389 1.310791-16.756115 4.128086-24.673764 0 0-7.314344 15.914806-6.381031 26.597491l.111632 1.896944c-6.200917.887786-9.318465 1.811439-9.318465 1.811439z"/><path d="m151.335564 151.975672c-4.316204-.731151-8.467118-1.35907-12.452741-1.883757l1.575608-3.054534c-.531282-.184508-2.865529 1.564733-2.865529 1.564733l2.067734-8.866574c-2.672108.322207-4.030691 9.375518-4.030691 9.375518l-2.985429-3.060863 1.445344 3.441212c-10.484675-1.267344-21.033529-1.931158-31.594386-1.988157l1.348567-2.61436c-.531282-.184508-2.865545 1.564733-2.865545 1.564733l2.067734-8.866574c-2.672108.322207-4.0306908 9.375518-4.0306908 9.375518l-2.9854288-3.060863 1.5308445 3.644809c-6.0712119.100249-12.1332783.511972-18.1622811 1.233547 1.3639995-4.072702 5.9976634-7.946164 5.9976634-7.946164-3.5386869 1.052339-5.3949226 2.815755-6.3648568 4.459769-.086679-8.403389 1.3107882-16.756115 4.128086-24.673763 0 0-7.3143436 15.914805-6.3810307 26.597494l.1116288 1.896943c-6.2009131.887786-9.3184652 1.81144-9.3184652 1.81144z"/><path d="m255.907897 155.409955c0 4.85507-45.126463 19.46549-100.79278 19.46549-55.6663164 0-100.7927793-14.61042-100.7927793-19.46549 0-4.855069 45.126466 1.883758 100.7927793 1.883758 55.666314 0 100.79278-6.738827 100.79278-1.883758z"/></g><path d="m255.907897 155.409955c0 4.85507-45.126463 19.46549-100.79278 19.46549-55.6663164 0-100.7927793-14.61042-100.7927793-19.46549 0-4.855069 45.126466 1.883758 100.7927793 1.883758 55.666314 0 100.79278-6.738827 100.79278-1.883758z" fill="#000" opacity=".1"/></g><ellipse cx="155.44484" cy="240.106762" fill="#3f3d56" rx="100.854093" ry="8.790036"/><ellipse cx="160.996441" cy="238.256228" fill="#000" opacity=".1" rx="85.124555" ry="5.088968"/><path d="m130.461399 206.091797c.139829 19.930109-11.617851 26.971441-26.180553 27.074336-.33827.00239-.674931.000978-1.009983-.004236-.675026-.009842-1.343125-.035982-2.004298-.078421-13.14988-.841024-23.4135439-8.084095-23.5435873-26.61905-.134576-19.181373 24.1243073-43.560506 25.9438193-45.363282.0016 0 .0016 0 .003208-.001648.069123-.068704.104506-.103055.104506-.103055s26.547081 25.16687 26.686888 45.095356z" fill="#6c63ff"/><path d="m103.424528 230.129465 9.601736-13.59208-9.615678 15.076862-.015068 1.553013c-.678726-.009843-1.350488-.035986-2.015284-.078428l.904087-19.947258-.009212-.154245.017669-.029373.085995-1.884882-9.8520826-14.977406 9.8714136 13.565683.027233.399408.682972-15.070932-8.452881-15.489179 8.53671 12.84085.601472-31.241086.002508-.103971.000721.102309.037084 24.633486 8.235265-9.823654-8.256103 11.945255-.124528 13.491356 7.666056-13.000185-7.682976 14.983678-.069138 7.501875 11.130597-18.099107-11.156087 20.716165z" fill="#3f3d56"/><path d="m197.256325 235.017794h24.807732l-8.24026-13.312421-5.805294-.483569 3.401457-3.399889-20.730385-33.490657v-5.46977h-2.787852l-16.912405-40.476301 2.918556-4.011164-2.918556-2.187909h-1.620086l-9.468189-85.8753912h1.420555l2.188915-6.1990736v-12.0335045h-2.918553v-5.834412h-3.648194v-11.3041909h-.72964v-10.9395418h-.729638v10.9395418h-1.094458v11.3041909h-3.283376v5.834412h-3.283374v12.0334951l2.553736 6.1990736h1.475868l-7.100424 85.8754006h-.03015l-4.742654 1.458605 2.553736 4.375816.182407.364652h-.182407l-14.197791 40.476301h-3.678365l.364821 5.46977-30.6448328 50.686536h25.1725498v-5.834406h-1.459291s4.742655-32.089318 39.035693-35.006529c35.022677-.729301 41.589427 34.277228 41.589427 34.277228h-1.459278zm17.085711-11.851169.972867 3.403407-4.377835-2.917211zm-5.350673.97239 5.350673 3.403426-5.837116-.486216zm-6.323556 3.403426 3.405-3.88962 1.459278 3.88962zm-5.698122-21.514429 1.250829 2.917211-5.420201-2.917211zm-1.615636-1.875359.416943-2.500457 4.586296 2.917211zm7.800189 13.179544 1.459278 3.403407-6.323556-3.403407zm-6.601511-2.552559 2.918556-3.333964 1.250829 3.333964zm5.003242-.41675.416943-2.500457 4.586297 2.91721zm5.003243 6.858913-1.945696-3.889601h5.35067zm.833886-7.275645-3.752427-2.500479 2.918556-.416732zm-1.250829-4.16745-5.003221-.416751 2.918557-2.917211zm-6.254037-.416751-1.66774-3.333943h4.586296zm1.302907-5.626034-3.752426-2.500479 2.918556-.416731zm-1.250828-4.16745-5.003221-.416751 2.918556-2.91721zm-6.254037-.416751-1.66774-3.333942h4.586296zm-5.628651-5.573953.416943-2.500457 4.586297 2.91721zm3.960911 5.157222-5.420189-2.917211h4.169373zm1.876202-5.573954-3.752426-2.500479 2.918556-.416732zm-1.250829-4.16745-5.00322-.416751 2.918556-2.917211zm-3.33548-3.750697-2.918556 3.333943-1.667741-3.333943zm-4.586297 2.917211-5.420132-2.917214h4.169373zm-40.971366-9.298611 7.5383-33.547926h11.674225l9.977961 33.547926zm25.648994 9.66326-5.420176-2.917211h4.169372zm-9.589561-.729304-1.459278 1.666971-.83387-1.666971zm-2.293148 1.458605-2.710073-1.458605h2.084665zm-18.084621-20.785124 5.472293-3.281863-1.459279 6.199061zm2.918557 3.646512h-8.75567l4.742652-2.917211zm13.428158-116.3518308-1.543466 1.5427583-1.54347-1.5427583zm-3.086936-.673195 1.54347-1.5427551 1.543466 1.5427551zm3.086936 4.3758193h-3.086936l1.54347-1.5427583zm-1.234759-1.8513012 1.543467-1.5427583v3.0855166zm1.487331 3.2818629v3.6465118l-1.824095-1.8232575zm-1.487331-7.6576759 1.543467-1.5427582v3.0855008zm.392874-4.0111639 1.216058-1.2155197v2.4310142zm.972866 1.4586053h-2.432138l1.216058-1.2155196zm-1.21608-1.7017162-1.216058-1.2154945h2.432138zm-.243198.2431109-1.21608 1.2154945v-2.4310142zm1.328304 2.1598409-1.543467 1.5427582-1.54347-1.5427582zm-1.852152 1.851323-1.54347 1.5427583v-3.0855165zm0 4.3758162-1.54347 1.5427582v-3.0855353zm1.739907 2.9172107-1.824099 1.8232575-1.824098-1.8232575zm0 4.3758161h-3.648204l1.824099-1.8232575zm.364817 1.4586054v3.6465118l-1.824096-1.8232543zm-.364817-.3646522-1.824099 1.8232575-1.824098-1.8232575zm0 4.3758161h-3.648204l1.824099-1.8232574zm.280628 1.7671483v4.4880127l-2.245054-2.2439938zm-.449012 4.9368145h-4.490086l2.245051-2.2439937zm.449012 1.6269112v4.4880095l-2.245054-2.2439937zm-.449012-.448805-2.245029 2.2440189-2.245051-2.2440189zm0 5.3856196h-4.490086l2.245051-2.2439938zm.350794 1.8653433v5.4697662l-2.73615-2.7348846zm-.547231 6.0167476h-5.472298l2.736146-2.7348847zm.547231 2.0055804v5.4697725l-2.73615-2.7348847zm-.547231-.5469751-2.736146 2.7348847-2.736146-2.7348847zm0 6.5637226h-5.472298l2.736146-2.7348846zm.449009 2.243994v6.451529l-3.227245-3.22576zm-.645446 7.096677h-6.454511l3.227242-3.225753zm.561258 3.422122v7.293027l-3.648197-3.646515zm-.729647 8.022322h-7.296391l3.648197-3.646512zm.673505 3.001363v7.854026l-3.928825-3.927011zm-.785751-.78541-3.928825 3.927011-3.928826-3.927011zm0 9.424824h-7.857651l3.928826-3.927011zm-8.825834 23.001096h-7.296391l4.377835-2.552558zm-2.188915-3.281862 4.742655-2.917211-1.094461 6.563725zm2.918556 5.105117-1.094458 6.19907-2.918553-3.281856zm-1.824098-.729305-3.648197 2.917211-2.553737-2.917211zm-.364821 7.293027h-7.661208l4.013017-2.91721zm2.501611 21.879081-1.667741 3.333942-2.918556-3.333942zm1.250828 0h4.16936l-5.420188 2.917211zm27.459564-17.609362-3.805465 3.183-1.877272-6.085654zm-6.559437-5.035963-1.513299-6.110427 4.202038 2.63796zm4.558196-2.868737 4.202038 2.637956-7.643508.520271zm-.463126-1.430452-3.838043-2.66273 6.187593-.421159zm-5.004335-3.67983 2.738305-2.744857 4.54123 2.24936zm-1.431137.462913-1.53808-6.474217 4.929985 2.588392zm-8.884014-23.105729 3.928822-3.927011 3.928826 3.927011zm-.785751-.785389v-7.854025l3.928823 3.927014zm.785751-8.639435h7.857648l-3.928826 3.927011zm-.112249-2.215947 3.648197-3.646518 3.648207 3.646518zm-.729637-.729308v-7.293026l3.648194 3.646511zm-.084192-11.3603v-6.451529l3.227254 3.225785zm3.872713-2.580605 3.227241 3.225754h-6.454492zm-2.666007-48.0498244-1.54347 1.5427583v-3.0855165zm-1.234762-1.8513231h3.086939l-1.54347 1.5427583zm-.252572 10.6029554 1.824098 1.8232574-1.824098 1.8232544zm.36482-.3646522h3.648194l-1.824099 1.8232575zm-.280629 12.7066901 2.245051 2.2440157-2.245051 2.2439938zm.449009-.448805h4.490083l-2.245054 2.2440188zm-.350778 15.2733066 2.736146 2.7348878-2.736146 2.7348846zm.547228-.5469751h5.472295l-2.736146 2.7348847zm2.736149 3.8288379 2.736146 2.7348847h-5.472295zm.547227-.546975 2.736147-2.7348878v5.4697724zm-3.283376-4.7404683 2.736149-2.7348846 2.736146 2.7348846zm-.547228-.5469782v-5.469785l2.736146 2.7348847zm2.59582-9.5791096 2.245054 2.2439938h-4.490083zm.449012-.4488019 2.245051-2.2440157v4.4880095zm-2.694041-3.8709269 2.245029-2.2439938 2.245054 2.2439938zm-.449009-.4488019v-4.4880283l2.245051 2.2440157zm2.104724-8.0784184 1.824098 1.8232575h-3.648194zm.36482-.364649 1.824099-1.8232575v3.6465119zm-2.188916-3.2818628 1.824096-1.8232575 1.824098 1.8232575zm-.36482-.3646522v-3.6465275l1.824099 1.8232544zm1.796042-6.6198318 1.54347 1.5427583h-3.08694zm.308685-.3085429 1.543467-1.5427583v3.0855166zm-1.852155-2.5245181 1.54347-1.5427551 1.54347 1.5427551zm-.308707-.3085397v-3.0855166l1.54347 1.5427583zm1.637026-5.5539223 1.216078-1.2155196v2.4310142zm.972867 1.4586054h-2.432135l1.216077-1.2155196zm-1.216058-1.7017162-1.216077-1.2154945h2.432135zm-.24322.2431108-1.216058 1.2154946v-2.4310142zm16.130219 136.3795878-2.918557 3.333943-1.66774-3.333943zm-.898134-14.137719 3.805468-3.182997 4.929984 2.588392zm9.389027-1.735586-4.954769-2.9522 2.763114-2.381048zm-6.096254-3.605495-4.541227-2.24936 7.279534-.495497zm2.225612-4.902942-4.177253-2.274129 2.34955-3.083889zm-2.75396-8.218944-4.177231-2.274151 2.374331-2.720087zm-2.216461-5.697075-2.713529 3.108677-4.929985-2.588416zm-7.024402-16.119443-3.928822-3.927011 3.928822-3.927014zm-.729637-11.58469-3.648197-3.646515 3.648197-3.646511zm-4.377835-4.375809-3.648197-3.646522h7.296391zm3.283377-6.984484-3.227242-3.225751 3.227242-3.225775zm-3.872691-3.870905-3.227263-3.225776h6.454505zm2.59582-13.3939277-2.736147-2.7348846 2.736147-2.7348847zm-3.283374-3.2818628-2.736149-2.7348847h5.472295zm2.006506-11.0657775-2.245051-2.2439938 2.245051-2.2440157zm-2.694063-2.6927988-2.245029-2.2440157h4.490083zm1.599605-9.3967836-1.824099-1.8232575 1.824099-1.8232543zm-2.188919-2.1879065-1.824096-1.8232575h3.648194zm1.459278-7.573526-1.543467-1.5427583 1.543467-1.5427583zm-1.852152-1.8513231-1.54347-1.5427583h3.08694zm-6.903517 7.9662406 1.824098 1.8232544-1.824098 1.8232575zm0 5.4697694 1.824098 1.8232575-1.824098 1.8232543zm3.844634 5.3295103-2.245029 2.2440158-2.245051-2.2440158zm-4.939092.4488019 2.245054 2.2440158-2.245054 2.2439937zm0 6.5637257 2.245054 2.2440158-2.245054 2.2439938zm4.742655 6.2551798-2.736146 2.7348846-2.736146-2.7348846zm-6.019523.5469781 2.736146 2.7348847-2.736146 2.7348847zm0 8.022328 2.736146 2.7348878-2.736146 2.7348847zm5.823083 7.6155932-3.227264 3.225775-3.227241-3.225775zm-7.099951.645151 3.227242 3.225782-3.227242 3.225754zm6.931571 9.789495-3.648194 3.646522-3.648197-3.646522zm-8.026029.729308 3.648194 3.646512-3.648194 3.646515zm-.72964 11.023691 3.928825 3.927014-3.928825 3.927012zm1.641688 24.712132-4.742655 2.917211-2.918556-2.917211zm-8.026032.729327 2.553736 2.552558-4.013017 2.552559zm-2.188909 8.022312 2.553736 2.917211-4.013014 2.552558zm5.472292 7.657676-4.377834 2.552558-2.918557-2.552558zm-8.390848 1.093956 2.918556 2.187907-4.742655 3.281862zm2.084686 19.691171-5.420189 2.917211 1.250829-2.917211zm-5.420189 0-1.66774 3.333943-2.918556-3.333943zm-5.837113.416732 2.918557 2.917211-5.003221.41675zm4.690548 10.158158-5.420188 2.91721 1.250828-2.91721zm-7.192158-1.823258 4.586297-2.917211.416943 2.500457zm0-3.750696 2.918556.416732-3.752426 2.500479zm1.77197 5.573954-1.66774 3.333942-2.918557-3.333942zm-5.837113.416732 2.918556 2.91721-5.00322.416751zm-.434292 21.097696-6.323559 3.403407 1.459279-3.403407zm-8.269248-2.552559 4.586296-2.91721.416943 2.500457zm5.837113 0 1.250828-3.333964 2.918557 3.333964zm7.921786-8.751632-5.420189 2.917211 1.250829-2.917211zm-7.556982-1.458605 4.586297-2.917211.416943 2.500457zm0-3.750696 2.918557.416731-3.752427 2.500479zm2.136793 5.209301-1.66774 3.333943-2.918556-3.333943zm-5.837112.416732 2.918556 2.917211-5.003221.416751zm-2.501611 4.584204 2.918557.416732-3.752427 2.500479zm1.945696 6.303255-1.945696 3.889601-3.404977-3.889601zm-9.728501 5.834422 3.404977.486196-4.377838 2.917211zm0 4.375816 5.350673-3.403426.48644 2.91721zm.486418-5.834422 2.432138-3.889619 3.404977 3.403404zm6.323533 5.834422 1.459278-3.88962 3.404996 3.88962zm6.809973-.486216-3.404977-3.8896 5.837113-.486216zm2.918557-5.834421h-5.350689l6.809973-3.403404zm2.918556-6.858913-2.918556-3.333943 5.003242-.416751zm2.501623-5.000936h-4.586309l5.837112-2.917211zm-2.136793-4.792548 1.250828-3.333965 2.918557 3.333965zm5.837112-.416751-2.918556-3.333942 5.003243-.416751zm2.501611-5.000936h-4.586309l5.837112-2.91721zm-1.771982-5.157203 1.250828-3.333964 2.918557 3.333964zm5.837112-.41675-2.918556-3.333943 5.003243-.416751zm-2.084686-5.000936 5.837113-2.917211-1.250829 2.917211zm6.0977 1.667002 2.918557.416732-3.752427 2.500479zm0 3.750697 4.586297-2.917211.416943 2.500457zm.416943-5.000936 2.084665-3.333965 2.918556 2.917211zm5.420167 5.000936 1.250829-3.333965 2.918556 3.333965zm5.837113-.416751-2.918557-3.333943 5.003243-.41675zm-2.084686-5.000936 5.837112-2.91721-1.250828 2.91721zm5.680779-.573018 2.918534 1.458606h-2.293145zm.833886 2.083725 2.50161.208366-1.459278 1.666972zm1.876202 2.083725 1.459278-1.667002.625408 1.667002zm3.752427-4.16745 1.042354 1.666971-2.501633-.208365zm-1.250795 3.959063.208462-1.250218 2.293149 1.458605zm1.042333-1.458606 1.459278-.208366.416924 1.458606zm2.084686-4.479997 5.837112 2.91721h-4.586315zm1.66774 4.16745 5.003243.41675-2.918557 3.333943zm3.752426 4.16745 2.918557-3.333965 1.250828 3.333965zm7.504875-8.3349 2.084665 3.333964-5.003221-.41675zm-2.501632 7.918146.416943-2.500457 4.586297 2.917211zm2.084686-2.917211 2.918557-.416731.833885 2.91721zm2.814324-5.365587 5.837113 2.91721h-4.586319zm1.66774 4.16745 5.003243.41675-2.918556 3.333943zm6.670983.833501 1.250829 3.333965h-4.169398zm.208484 8.491177-1.250829-2.917211 5.837113 2.917211zm.416924 1.250252 5.003243.416751-2.918557 3.333942zm6.670983.833486 1.250829 3.333964h-4.169398zm-2.136793 5.209302 5.837113 2.91721h-4.586306zm1.66774 4.16745 5.003243.41675-2.918557 3.333943zm3.543943 7.206149 6.809973 3.403404h-5.350683zm1.945695 4.862009 5.837113.486216-3.404974 3.8896z" fill="#3f3d56"/><path d="m148.967972 29.6085409h4.626334v1.8505338h-4.626334z" fill="#000" opacity=".1"/><path d="m156.370107 29.6085409h4.626334v1.8505338h-4.626334z" fill="#000" opacity=".1"/><path d="m243.13471 230.055194c-3.832584 2.208768-5.341116 6.64876-5.341116 6.64876s4.705311.858872 8.537892-1.349895c3.83258-2.208768 5.341112-6.64876 5.341112-6.64876s-4.705308-.858873-8.537888 1.349895z" fill="#3f3d56"/><path d="m244.738552 231.983751c-2.165459 4.088086-6.702166 5.809843-6.702166 5.809843s-1.025806-4.906342 1.139653-8.994427c2.165459-4.088086 6.702165-5.809843 6.702165-5.809843s1.025807 4.906339-1.139652 8.994427z" fill="#6c63ff"/></g></svg>