<svg height="824.9801" viewBox="0 0 849 824.9801" width="849" xmlns="http://www.w3.org/2000/svg"><g transform="translate(-175 -37.00995)"><path d="m876 515 21-7 8 13-5.01814 6.75865a22.53794 22.53794 0 0 1 -21.98186-2.75865c-11-8-2-10-2-10z" fill="#9f616a"/><path d="m837.00006 342.01h-.00012a33.99994 33.99994 0 0 0 -33.99994 33.99989v35.00011h8.01965l1.27167-3.44885.97333 3.44885h48.755l1.27167-3.44885.97333 3.44885h6.73535v-35.00011a33.99994 33.99994 0 0 0 -33.99994-33.99989z" fill="#2f2e41"/><path d="m881.78311 441.71849-4.89623-1.09765-6.48078 4.19345 12.57866 62.88226 21.93713 16.714c7.03762-12.60539-23.13878-82.69206-23.13878-82.69206z" fill="#9f616a"/><path d="m824.27822 392.58684s-5.33712 28.97289-9.91178 29.73534 19.06111 9.14933 19.06111 9.14933l19.06111-1.52489-2.28733-6.09955s-6.09956-15.24889 0-29.73534-25.92311-1.52489-25.92311-1.52489z" fill="#9f616a"/><path d="m824.27822 392.58684s-5.33712 28.97289-9.91178 29.73534 19.06111 9.14933 19.06111 9.14933l19.06111-1.52489-2.28733-6.09955s-6.09956-15.24889 0-29.73534-25.92311-1.52489-25.92311-1.52489z" opacity=".1"/><path d="m794.16166 510.76573.76244-66.33266-15.81625-12.96156s-10.10686 85.39378 1.32981 93.78067a26.02159 26.02159 0 0 0 3.536 2.16629l10.61429-16.51094c-.26807-.08907-.42629-.1418-.42629-.1418z" fill="#9f616a"/><path d="m779.294 731.87462-9.14933 46.50911h22.11089s12.96155-33.54755 12.19911-40.40955-25.16067-6.09956-25.16067-6.09956z" fill="#9f616a"/><path d="m873.07466 735.68684v38.88467l17.53622 2.28733s11.43667-44.22178 9.14934-48.034-26.68556 6.862-26.68556 6.862z" fill="#9f616a"/><path d="m798.3551 561.08707s-28.97288 174.59977-22.11088 177.64955 64.04533 13.724 67.85755 8.38689 11.43667-111.31689 11.43667-111.31689 9.14933 109.792 18.29866 108.26711 57.94578.76245 60.99556-12.19911-36.59733-172.31244-36.59733-172.31244l-9.91178-6.862h-29.73533z" fill="#2f2e41"/><path d="m770.14466 769.99684-6.862 38.12222-3.04978 34.31s-9.91178 17.53623 5.33711 17.53623 19.82356-6.862 19.82356-6.862v-24.39823s1.52489-12.19911 0-16.01133 2.28733-6.09955 2.28733-6.09955-3.04978-12.96156 0-16.01134 8.38689-16.77378 8.38689-16.77378z" fill="#2f2e41"/><path d="m869.26244 769.99684-2.28734 27.448s-3.81222 14.48645-3.81222 19.06111-2.28733 32.02267-2.28733 32.02267-.76245 13.724 14.48644 11.43667 11.43667-9.91178 11.43667-9.91178v-15.24889s.76244-16.01133 0-17.53622.76244-9.14934.76244-10.67422 1.52489-14.48645 1.52489-14.48645l4.57467-18.29867z" fill="#2f2e41"/></g><circle cx="661.85855" cy="342.99656" fill="#9f616a" r="22.87333"/><path d="m811.31666 420.03484s28.21044-5.33711 41.172 2.28734 14.48644 14.48644 19.06111 14.48644 9.91178-3.04978 12.96156 6.09956l-9.91178 12.96155-3.81222 28.97289 13.724 63.28289s12.19911 5.33711 7.62444 6.862-65.57022 22.11089-69.38244 9.91178-18.29867-65.57022-17.53623-67.85756-8.38688-44.98422-8.38688-44.98422l-19.82356-19.06111s7.62444-6.862 16.77378-3.04978 17.53622-9.91178 17.53622-9.91178z" fill="#d0cde1" transform="translate(-175 -37.00995)"/><path d="m818.05556 416.82356s-12.83846 4.73617-17.41312 7.02351-19.44234 3.431-19.44234 5.71833 13.0557-1.97688 12.818 19.78817-10.14946 165.86705-2.525 167.39194.76245-7.62444 16.77378 0 23.63578.76244 25.16067-1.52489 5.33711-86.91867 0-115.12911-15.37199-83.26795-15.37199-83.26795z" fill="#3f3d56" transform="translate(-175 -37.00995)"/><path d="m848.21564 418.99711a.9661.9661 0 0 1 1.47731-.92262c4.554 2.86973 16.80582 10.63335 18.0446 11.87213 1.033 1.033 6.96432 3.11562 10.68351 4.35177a4.84737 4.84737 0 0 1 3.32279 4.34514 22.33216 22.33216 0 0 1 -.2823 5.78954c-.76245 3.04977-3.81222 13.724-3.81222 13.724s10.67422 73.19466 29.73533 107.50466 17.53622 48.034 11.43667 48.79645-18.29867-42.69689-34.31-51.08378-31.26023-61.758-30.49778-73.19467c.68078-10.21165-4.64844-60.52199-5.79791-71.18262z" fill="#3f3d56" transform="translate(-175 -37.00995)"/><path d="m823.13455 519.91507c-5.61577-1.404-28.91193-6.20925-32.02267-7.24323l-7.13824 14.74663c11.3114 5.79125 26.19935 3.93326 26.19935 3.93326s22.11089 20.20478 25.92311 10.293-6.862-20.20473-12.96155-21.72966z" fill="#9f616a" transform="translate(-175 -37.00995)"/><path d="m804.74367 531.927 7.93622-15.75844a2.77458 2.77458 0 0 1 3.40239-1.36808l1.51305.53459a2.77458 2.77458 0 0 1 1.43307 4.07929l-9.44928 15.22384a2.77458 2.77458 0 0 1 -4.7664-.08663 2.77458 2.77458 0 0 1 -.06905-2.62457z" fill="#2f2e41" transform="translate(-175 -37.00995)"/><circle cx="636.69788" cy="487.861" fill="#2f2e41" r="6.09956"/><circle cx="636.69788" cy="487.861" fill="#d0cde1" r="3.81222"/><path d="m888.70477 511.9094.76245.76244-44.603-5.71833s-22.49212-7.24322-28.59167 7.24322 31.64145 8.00567 31.64145 8.00567 47.27156 12.96155 56.42089 3.04978a4.387 4.387 0 0 0 .587-.84165z" fill="#9f616a" transform="translate(-175 -37.00995)"/><path d="m640 316h44v27h-44z" fill="#2f2e41"/><circle cx="269" cy="269" fill="none" r="268" stroke="#3f3d56" stroke-miterlimit="10" stroke-width="2"/><path d="m714.52627 433.81183a260.12945 260.12945 0 0 0 21.03953-102.80183c0-144.14631-116.85369-261-261-261s-261 116.85369-261 261 116.85368 261 261 261a260.34594 260.34594 0 0 0 195.39454-87.98611l94.207 12.68717 3.83574-28.98128z" fill="#f2f2f2" transform="translate(-175 -37.00995)"/><path d="m593.003 450.72-3.836 28.981 47.833 8.299z" fill="#f2f2f2" opacity=".6"/><path d="m453.436 308.364-121.344-124.031-16.313 35.088-73.674-75.306-96.266 207.068 147.194 68.43.618-1.329 89.369 41.547z" fill="#6c63ff" opacity=".2"/><path d="m652.38123 354.26191c.00025-.12228.00231-.24412.00231-.36645 0-.07028-.00126-.14024-.00134-.21049h-.0502c-2.2573-14.35567-81.23588-25.89-173.81168-25.89s-171.55432 11.53433-173.81166 25.89003h-.05018c-.00008.07025-.00134.14021-.00134.21049 0 .12233.00206.24417.00232.36645-.00026.01819-.00232.03633-.00232.05452 0 .02457.0027.049.00314.07359a173.86076 173.86076 0 0 0 347.72012 0c.00044-.02454.00314-.049.00314-.07359 0-.01822-.00206-.03636-.00231-.05455z" fill="#3f3d56" transform="translate(-175 -37.00995)"/><ellipse cx="303.52034" cy="317.30648" fill="#fff" opacity=".1" rx="173.8632" ry="26.5215"/><circle cx="357.08709" cy="282.18396" fill="#6c63ff" r="30.75935"/><path d="m356.80848 337.81034.25204-55.79571" fill="#3f3d56" stroke="#3f3d56" stroke-miterlimit="10" stroke-width="2"/><circle cx="357.06052" cy="282.01463" fill="#3f3d56" r="7.89038"/><path d="m531.90518 353.41263s-1.01767-24.24846-24.13771-21.53488" fill="#3f3d56" transform="translate(-175 -37.00995)"/><circle cx="444.40211" cy="197.80607" fill="#6c63ff" r="30.75935"/><path d="m442.66043 311.36171 1.77028-113.58965" fill="#3f3d56" stroke="#3f3d56" stroke-miterlimit="10" stroke-width="2"/><circle cx="444.43071" cy="197.77206" fill="#3f3d56" r="7.89038"/><path d="m618.93 266.91211s-.74928-24.25824-23.89793-21.80067" fill="#3f3d56" transform="translate(-175 -37.00995)"/><path d="m617.69423 346.203s5.79826-46.536-23.47019-49.24678" fill="none" stroke="#3f3d56" stroke-miterlimit="10" stroke-width="2" transform="translate(-175 -37.00995)"/><circle cx="419.22404" cy="259.94628" fill="#3f3d56" r="7.89038"/><circle cx="171.21319" cy="128.01065" fill="#6c63ff" r="30.75935"/><path d="m171.23249 314.23387v-186.11022" fill="#3f3d56" stroke="#3f3d56" stroke-miterlimit="10" stroke-width="2"/><circle cx="171.23249" cy="128.03548" fill="#3f3d56" r="7.89038"/><circle cx="146.99774" cy="262.68718" fill="#3f3d56" r="7.89038"/><path d="m346.23249 205.34989s-1.1272-24.24362-24.23475-21.42563" fill="#3f3d56" transform="translate(-175 -37.00995)"/><path d="m346.23249 274.07782s-1.1272-24.24362-24.23475-21.42563" fill="#3f3d56" transform="translate(-175 -37.00995)"/><path d="m346.23249 349.07492s5.07239-47.1234-24.23475-49.37779" fill="none" stroke="#3f3d56" stroke-miterlimit="10" stroke-width="2" transform="translate(-175 -37.00995)"/><circle cx="195.95131" cy="188.67248" fill="#3f3d56" r="7.89038"/><path d="m346.71656 272.54662s-5.07239-44.60979 24.23475-46.86419" fill="none" stroke="#3f3d56" stroke-miterlimit="10" stroke-width="2" transform="translate(-175 -37.00995)"/><path d="m544.73623 267.18092a11.05987 11.05987 0 1 1 11.05986-11.05986 11.07238 11.07238 0 0 1 -11.05986 11.05986zm0-21.11428a10.05442 10.05442 0 1 0 10.05441 10.05442 10.06593 10.06593 0 0 0 -10.05441-10.05442z" fill="#3f3d56" transform="translate(-175 -37.00995)"/><circle cx="306.45841" cy="146.71928" fill="#3f3d56" r="6.53537"/><path d="m299.732 258.58v55.359l-29.89 16.839-60.62-4.631v-57.253l30.099-10.314z" fill="#6c63ff"/><path d="m299.732 258.896v55.043l-29.89 16.839h-.631v-61.673z" opacity=".1"/><path d="m299.732 258.58v.493l-30.521 10.032h-59.989v-.211l30.099-10.314z" fill="#fff" opacity=".1"/><ellipse cx="254.67815" cy="262.84783" opacity=".1" rx="14.57891" ry="3.01633"/><path d="m429.67815 299.93512-6.48848-5.85326c-23.04178-21.15509-38.25369-34.88577-38.25369-51.99a24.33269 24.33269 0 0 1 24.60819-24.75769 26.46831 26.46831 0 0 1 20.134 9.45329 26.46727 26.46727 0 0 1 20.134-9.45329 24.33269 24.33269 0 0 1 24.60819 24.75769c0 17.10441-15.21212 30.83509-38.25369 51.99z" fill="#ff6584" transform="translate(-175 -37.00995)"/><path d="m453 823h396" fill="none" stroke="#3f3d56" stroke-miterlimit="10" stroke-width="2"/><path d="m810.58215 824.9801v-116.09353" fill="#3f3d56" stroke="#3f3d56" stroke-miterlimit="10" stroke-width="2"/><circle cx="810.58215" cy="708.88657" fill="#3f3d56" r="16.41727"/><path d="m985.58215 817.44736s-2.34533-50.44292-50.42446-44.57961" fill="#3f3d56" transform="translate(-175 -37.00995)"/><circle cx="284.75" cy="625.37778" fill="#3f3d56" r="20.28889"/><circle cx="221.11667" cy="625.37778" fill="none" r="14.75556" stroke="#3f3d56" stroke-miterlimit="10" stroke-width="2"/><circle cx="348.38333" cy="625.37778" fill="none" r="14.75556" stroke="#3f3d56" stroke-miterlimit="10" stroke-width="2"/></svg>